<svg width="40" height="40" viewBox="0 0 40 40" fill="none" xmlns="http://www.w3.org/2000/svg">
<g id="bootstrap-4-logo-svgrepo-com 1" clip-path="url(#clip0_401_172)">
<path id="Vector" d="M0.260971 34.9272C0.260971 37.714 2.51999 39.9727 5.3065 39.9727H34.3457C37.1327 39.9727 39.3914 37.7137 39.3914 34.9272V5.88797C39.3914 3.101 37.1324 0.842285 34.3459 0.842285H5.30666C2.51968 0.842285 0.260971 3.1013 0.260971 5.88782V34.927V34.9272Z" fill="#563D7C"/>
<path id="Vector_2" d="M16.4876 18.1511V12.6097H21.3653C21.8299 12.6097 22.2778 12.6484 22.7091 12.7259C23.1405 12.8032 23.5222 12.9414 23.854 13.1406C24.1857 13.3397 24.4512 13.6163 24.6504 13.9701C24.8494 14.3241 24.9491 14.7776 24.9491 15.3305C24.9491 16.326 24.6504 17.0451 24.053 17.4874C23.4558 17.9299 22.6926 18.1511 21.7634 18.1511H16.4876ZM11.2779 8.5614V32.2537H22.759C23.8209 32.2537 24.8551 32.121 25.8616 31.8555C26.8681 31.59 27.764 31.1808 28.5494 30.6278C29.3346 30.0747 29.9596 29.3612 30.4241 28.4875C30.8888 27.6136 31.121 26.5794 31.121 25.3849C31.121 23.9027 30.7615 22.6363 30.0426 21.5856C29.3236 20.5347 28.234 19.7992 26.774 19.3788C27.8358 18.8701 28.6379 18.2174 29.1799 17.4211C29.7218 16.6247 29.9928 15.6293 29.9928 14.4346C29.9928 13.3286 29.8103 12.3995 29.4452 11.6474C29.0802 10.8953 28.5659 10.2925 27.9022 9.83895C27.2387 9.38543 26.4423 9.05909 25.5131 8.86008C24.584 8.66091 23.5553 8.5614 22.4271 8.5614H11.2779ZM16.4876 28.2053V21.7016H22.1616C23.2898 21.7016 24.1969 21.9614 24.8827 22.4814C25.5684 23.0013 25.9114 23.8695 25.9114 25.0862C25.9114 25.7057 25.8063 26.2144 25.5961 26.6126C25.3859 27.0108 25.1039 27.3261 24.7499 27.5583C24.396 27.7906 23.9867 27.9565 23.5222 28.0562C23.0575 28.1555 22.571 28.2053 22.0621 28.2053H16.4876Z" fill="white"/>
</g>
<defs>
<clipPath id="clip0_401_172">
<rect width="39.1304" height="39.1304" fill="white" transform="translate(0.260971 0.842285)"/>
</clipPath>
</defs>
</svg>
