<svg width="53" height="53" viewBox="0 0 53 53" fill="none" xmlns="http://www.w3.org/2000/svg">
<g id="css3-logo-svgrepo-com 1">
<path id="Vector" d="M39.3687 45.9574L26.1737 49.5103L12.9785 45.9574L9.93362 12.9699H42.414L39.3687 45.9574Z" fill="#2062AF"/>
<path id="Vector_2" d="M26.1736 15.6418V46.6766L26.2034 46.6847L36.8816 43.8093L39.3463 15.6418H26.1736V15.6418Z" fill="#3C9CD7"/>
<path id="Vector_3" d="M18.685 8.12338V6.15997H21.5496V4.01154H16.5366V10.0839H21.5496V8.12338H18.685ZM26.7027 6.15997H28.7055V4.01154H23.6919V6.15997C24.3627 6.83072 24.7125 7.15175 25.6826 8.12183C25.1155 8.12183 23.6919 8.12387 23.6919 8.12377V10.0839H28.7055V8.12338L26.7027 6.15997ZM33.8085 6.15997H35.8112V4.01154H30.7974V6.15997C31.4682 6.83072 31.8182 7.15175 32.7883 8.12183C32.2214 8.12183 30.7974 8.12387 30.7974 8.12377V10.0839H35.8113V8.12338L33.8085 6.15997V6.15997Z" fill="black"/>
<path id="Vector_4" d="M26.1619 23.89L16.7178 27.8232L17.031 31.7174L26.1619 27.8134L35.8748 23.6606L36.2775 19.6771L26.1619 23.89Z" fill="white"/>
<path id="Vector_5" d="M16.7177 27.8233L17.0309 31.7175L26.1618 27.8134V23.8901L16.7177 27.8233V27.8233Z" fill="url(#paint0_linear_401_178)"/>
<path id="Vector_6" d="M36.2775 19.6772L26.1619 23.8901V27.8134L35.8748 23.6607L36.2775 19.6772Z" fill="url(#paint1_linear_401_178)"/>
<path id="Vector_7" d="M16.7322 27.8233L17.0455 31.7175L31.0557 31.7621L30.7423 36.9543L26.1321 38.2522L21.7004 37.1332L21.4319 33.9105H17.314L17.8512 40.1321L26.1769 42.5938L34.4574 40.1768L35.5317 27.8233H16.7322V27.8233Z" fill="url(#paint2_linear_401_178)"/>
<path id="Vector_8" opacity="0.05" d="M26.1619 27.8233H16.7178L17.031 31.7175L26.1619 31.7466V27.8233ZM26.1619 38.2398L26.1171 38.2523L21.686 37.1333L21.4175 33.9106H17.2997L17.8368 40.1322L26.1619 42.5939V38.2398Z" fill="black"/>
<path id="Vector_9" d="M15.8673 19.6772H36.2775L35.8748 23.6608H16.3596L15.8673 19.6772V19.6772Z" fill="url(#paint3_linear_401_178)"/>
<path id="Vector_10" opacity="0.05" d="M26.1619 19.6772H15.8673L16.3596 23.6608H26.1619V19.6772V19.6772Z" fill="black"/>
</g>
<defs>
<linearGradient id="paint0_linear_401_178" x1="21.4398" y1="31.7176" x2="21.4398" y2="23.8902" gradientUnits="userSpaceOnUse">
<stop offset="0.387" stop-color="#D1D3D4" stop-opacity="0"/>
<stop offset="1" stop-color="#D1D3D4"/>
</linearGradient>
<linearGradient id="paint1_linear_401_178" x1="31.2196" y1="27.8135" x2="31.2196" y2="19.6773" gradientUnits="userSpaceOnUse">
<stop offset="0.387" stop-color="#D1D3D4" stop-opacity="0"/>
<stop offset="1" stop-color="#D1D3D4"/>
</linearGradient>
<linearGradient id="paint2_linear_401_178" x1="16.7322" y1="35.2087" x2="35.5316" y2="35.2087" gradientUnits="userSpaceOnUse">
<stop stop-color="#E8E7E5"/>
<stop offset="1" stop-color="white"/>
</linearGradient>
<linearGradient id="paint3_linear_401_178" x1="15.8673" y1="21.669" x2="36.2774" y2="21.669" gradientUnits="userSpaceOnUse">
<stop stop-color="#E8E7E5"/>
<stop offset="1" stop-color="white"/>
</linearGradient>
</defs>
</svg>
