<svg width="44" height="45" viewBox="0 0 44 45" fill="none" xmlns="http://www.w3.org/2000/svg">
<g id="html-5-logo-svgrepo-com 1" clip-path="url(#clip0_401_162)">
<path id="Vector" d="M37.2872 8.98737L34.4741 40.5015L21.829 44.0071L9.21871 40.5063L6.40851 8.98737H37.2872Z" fill="#E44D26"/>
<path id="Vector_2" d="M21.8478 41.3275L32.0657 38.4948L34.4696 11.5645H21.8478V41.3275Z" fill="#F16529"/>
<path id="Vector_3" d="M16.3792 19.2959H21.8478V15.4302H12.1545L12.247 16.4673L13.1972 27.1201H21.8478V23.2544H16.7325L16.3792 19.2959V19.2959ZM17.2505 29.053H13.3699L13.9114 35.1227L21.83 37.3208L21.8478 37.316V33.294L21.8309 33.2985L17.5257 32.136L17.2505 29.053V29.053Z" fill="#EBEBEB"/>
<path id="Vector_4" d="M9.28137 0.421814H11.2459V2.3627H13.043V0.421814H15.0076V6.2993H13.0431V4.33118H11.246V6.2993H9.28149V0.421814H9.28137ZM17.5908 2.37093H15.8616V0.421814H21.2859V2.37093H19.5557V6.2993H17.5912V2.37093H17.5911H17.5908ZM22.1468 0.421814H24.1951L25.4552 2.48701L26.714 0.421814H28.7632V6.2993H26.8067V3.3861L25.4552 5.47586H25.4213L24.0689 3.3861V6.2993H22.1468V0.421814ZM29.7409 0.421814H31.706V4.3566H34.4686V6.2993H29.7407V0.421814H29.7409Z" fill="black"/>
<path id="Vector_5" d="M21.8345 27.1201H26.5946L26.1458 32.1336L21.8344 33.2973V37.319L29.7592 35.1227L29.8173 34.4696L30.7259 24.2925L30.8202 23.2544H21.8345V27.1201ZM21.8345 19.2865V19.2959H31.1719L31.2494 18.4271L31.4256 16.4673L31.518 15.4302H21.8345V19.2866V19.2865Z" fill="white"/>
</g>
<defs>
<clipPath id="clip0_401_162">
<rect width="43.6957" height="43.6957" fill="white" transform="translate(0 0.421814)"/>
</clipPath>
</defs>
</svg>
